# xmcd
#
# Track frame offsets: 
#        182
#        17650
#        34815
#
# Disc length: 668 seconds
#
# Revision: 0
# Processed by: cddbd v1.5.1PL0 Copyright (c) Steve Scherf et al.
# Submitted via: ExactAudioCopy v0.95a5
#
DISCID=1a029a03
DTITLE=El Capitan - Belen
DYEAR=2000
DGENRE=Ambient
TTITLE0=Belen - Rubi - Garcia, Garcia - arranged by J.M. Bustamente
TTITLE1=Islas Baleares - Jonquières-Bustamente - arranged by El Capita
TTITLE1=n
TTITLE2=Andalucia - Garcia-Rubi, Jonquiéres - arranged by J. Garcia
EXTD=
EXTT0=
EXTT1=
EXTT2=
PLAYORDER=
